<mxfile host="65bd71144e">
    <diagram id="kb6ERmdoE3fj__gCxbpV" name="Page-1">
        <mxGraphModel dx="1387" dy="371" grid="1" gridSize="10" guides="1" tooltips="1" connect="1" arrows="1" fold="1" page="0" pageScale="1" pageWidth="827" pageHeight="1169" math="0" shadow="0">
            <root>
                <mxCell id="0"/>
                <mxCell id="1" parent="0"/>
                <mxCell id="EBAIrEwSQ_sO8G7dM4pI-14" style="edgeStyle=orthogonalEdgeStyle;rounded=0;orthogonalLoop=1;jettySize=auto;html=1;exitX=1;exitY=0.5;exitDx=0;exitDy=0;entryX=0;entryY=0.5;entryDx=0;entryDy=0;" parent="1" source="EBAIrEwSQ_sO8G7dM4pI-9" target="EBAIrEwSQ_sO8G7dM4pI-10" edge="1">
                    <mxGeometry relative="1" as="geometry"/>
                </mxCell>
                <object label="" type="initialstate" id="EBAIrEwSQ_sO8G7dM4pI-9">
                    <mxCell style="ellipse;whiteSpace=wrap;html=1;aspect=fixed;glass=0;sketch=0;fillColor=#000000;" parent="1" vertex="1">
                        <mxGeometry x="-630" y="100" width="30" height="30" as="geometry"/>
                    </mxCell>
                </object>
                <mxCell id="EBAIrEwSQ_sO8G7dM4pI-15" style="edgeStyle=orthogonalEdgeStyle;rounded=0;orthogonalLoop=1;jettySize=auto;html=1;exitX=1;exitY=0.5;exitDx=0;exitDy=0;entryX=0;entryY=0.5;entryDx=0;entryDy=0;" parent="1" source="EBAIrEwSQ_sO8G7dM4pI-10" target="EBAIrEwSQ_sO8G7dM4pI-12" edge="1">
                    <mxGeometry relative="1" as="geometry"/>
                </mxCell>
                <mxCell id="EBAIrEwSQ_sO8G7dM4pI-18" value="pushRightButton" style="edgeLabel;html=1;align=center;verticalAlign=middle;resizable=0;points=[];" parent="EBAIrEwSQ_sO8G7dM4pI-15" vertex="1" connectable="0">
                    <mxGeometry x="0.3111" y="1" relative="1" as="geometry">
                        <mxPoint x="-19" y="-14" as="offset"/>
                    </mxGeometry>
                </mxCell>
                <object label="Off" type="state" id="EBAIrEwSQ_sO8G7dM4pI-10">
                    <mxCell style="swimlane;rounded=1;whiteSpace=wrap;html=1;glass=0;sketch=0;" parent="1" vertex="1">
                        <mxGeometry x="-510" y="75" width="130" height="80" as="geometry"/>
                    </mxCell>
                </object>
                <mxCell id="EBAIrEwSQ_sO8G7dM4pI-16" style="edgeStyle=orthogonalEdgeStyle;rounded=0;orthogonalLoop=1;jettySize=auto;html=1;exitX=0;exitY=0.75;exitDx=0;exitDy=0;entryX=1;entryY=0.75;entryDx=0;entryDy=0;" parent="1" source="EBAIrEwSQ_sO8G7dM4pI-12" target="EBAIrEwSQ_sO8G7dM4pI-10" edge="1">
                    <mxGeometry relative="1" as="geometry">
                        <mxPoint x="-280" y="260" as="targetPoint"/>
                    </mxGeometry>
                </mxCell>
                <mxCell id="EBAIrEwSQ_sO8G7dM4pI-21" value="pushLeftButton" style="edgeLabel;html=1;align=center;verticalAlign=middle;resizable=0;points=[];" parent="EBAIrEwSQ_sO8G7dM4pI-16" vertex="1" connectable="0">
                    <mxGeometry x="-0.0875" y="1" relative="1" as="geometry">
                        <mxPoint x="-9" y="14" as="offset"/>
                    </mxGeometry>
                </mxCell>
                <object label="On" type="state" id="EBAIrEwSQ_sO8G7dM4pI-12">
                    <mxCell style="swimlane;rounded=1;whiteSpace=wrap;html=1;glass=0;sketch=0;startSize=23;" parent="1" vertex="1">
                        <mxGeometry x="-260" y="75" width="130" height="80" as="geometry"/>
                    </mxCell>
                </object>
            </root>
        </mxGraphModel>
    </diagram>
</mxfile>